<svg width="29" height="30" viewBox="0 0 29 30" fill="none" xmlns="http://www.w3.org/2000/svg">
<path fill-rule="evenodd" clip-rule="evenodd" d="M19.823 12.84C19.823 14.1661 19.3226 15.4378 18.4318 16.3755C17.541 17.3132 16.3328 17.84 15.073 17.84C13.8132 17.84 12.605 17.3132 11.7142 16.3755C10.8234 15.4378 10.323 14.1661 10.323 12.84C10.323 11.5139 10.8234 10.2421 11.7142 9.30446C12.605 8.36678 13.8132 7.84 15.073 7.84C16.3328 7.84 17.541 8.36678 18.4318 9.30446C19.3226 10.2421 19.823 11.5139 19.823 12.84ZM17.448 12.84C17.448 13.503 17.1978 14.1389 16.7524 14.6078C16.307 15.0766 15.7029 15.34 15.073 15.34C14.4431 15.34 13.839 15.0766 13.3936 14.6078C12.9482 14.1389 12.698 13.503 12.698 12.84C12.698 12.177 12.9482 11.5411 13.3936 11.0722C13.839 10.6034 14.4431 10.34 15.073 10.34C15.7029 10.34 16.307 10.6034 16.7524 11.0722C17.1978 11.5411 17.448 12.177 17.448 12.84Z" fill="black"/>
<path fill-rule="evenodd" clip-rule="evenodd" d="M7.38038 20.6475C5.8495 19.1132 4.78522 17.1355 4.32213 14.9645C3.85905 12.7935 4.01794 10.5267 4.77874 8.45081C5.53953 6.37487 6.86804 4.58303 8.59628 3.30188C10.3245 2.02073 12.3749 1.3078 14.488 1.25326C16.6012 1.19872 18.6822 1.80501 20.4681 2.99546C22.2539 4.18591 23.6642 5.90705 24.5208 7.94124C25.3773 9.97543 25.6415 12.2313 25.2801 14.4236C24.9186 16.6159 23.9477 18.6461 22.4901 20.2575L15.1205 28.405L7.38038 20.6475ZM20.7706 18.5338L15.0386 24.8713L9.01794 18.8375C7.82732 17.6442 6.99959 16.106 6.63944 14.4175C6.27928 12.729 6.40287 10.9659 6.99458 9.35136C7.58629 7.73678 8.61953 6.34316 9.96367 5.3467C11.3078 4.35025 12.9025 3.79572 14.546 3.75325C16.1895 3.71077 17.8081 4.18225 19.1971 5.10806C20.586 6.03388 21.683 7.37245 22.3493 8.95452C23.0156 10.5366 23.2212 12.2911 22.9402 13.9962C22.6592 15.7013 21.9042 17.2803 20.7706 18.5338Z" fill="black"/>
</svg>
